<?xml version="1.0" encoding="UTF-8"?>
<!DOCTYPE svg PUBLIC "-//W3C//DTD SVG 1.0//EN" "http://www.w3.org/TR/2001/REC-SVG-20010904/DTD/svg10.dtd">
<!-- Creator: CorelDRAW X8 -->
<svg xmlns="http://www.w3.org/2000/svg" xml:space="preserve" width="254mm" height="254mm" version="1.0" shape-rendering="geometricPrecision" text-rendering="geometricPrecision" image-rendering="optimizeQuality" fill-rule="evenodd" clip-rule="evenodd"
viewBox="0 0 25400 25400"
 xmlns:xlink="http://www.w3.org/1999/xlink">
 <g id="Capa_x0020_1">
  <metadata id="CorelCorpID_0Corel-Layer"/>
  <path fill="#426AE2" stroke="#373435" stroke-width="20" d="M25321 12669c0,-6970 -5640,-12620 -12598,-12620 -6959,0 -12599,5650 -12599,12620 0,6970 5640,12621 12599,12621 6958,0 12598,-5651 12598,-12621z"/>
  <g id="_2234023648704">
   <path fill="#4269E2" d="M7928 12884c81,-645 -89,-1101 187,-1619 243,-455 1001,-825 1536,-1161 316,-197 286,-38 285,296 -3,595 -2,1189 -3,1784 -2,686 83,971 456,1341 292,289 910,463 1418,303 1309,-411 990,-1614 1066,-2496 662,-52 2151,-20 2895,-20 489,0 655,108 655,602 0,1638 -26,1054 -643,1407 -27,447 80,1462 -115,1673 -6,7 -19,17 -26,23 -255,219 -750,128 -805,273l-30 79c-131,390 -231,743 -609,942 -568,300 -1983,148 -2681,147 -1134,0 -452,-97 -1708,542l-1108 611c-468,385 -828,93 -1084,-340l-1254 -2139c-82,-149 -137,-241 -224,-371 -595,-888 737,-1286 1306,-1594l486 -283zm2993 209c-356,-110 -425,-447 -427,-853 -2,-414 2,-829 2,-1242 0,-983 -172,-1559 657,-1881 128,-9 521,-277 684,-334 278,-99 656,-54 969,-54 852,0 1340,109 1837,-201 473,-297 898,-495 1341,-767 417,-256 967,-621 1341,-55 55,84 134,287 181,374l411 659c38,63 69,117 102,166l276 480c108,161 74,95 177,297 804,1564 1206,1258 -1346,2652 -135,-532 44,-936 -340,-1331 -325,-334 -698,-349 -1287,-348 -866,2 -2509,-95 -3281,23 -17,501 67,1626 -56,1994 -252,758 -1143,623 -1241,421zm-10377 600c19,101 56,69 77,270 53,496 41,1349 261,1862 36,85 7,9 44,117 29,85 68,205 92,281 238,742 501,1520 857,2163 85,153 63,97 122,268 170,496 149,178 437,677 195,340 1485,1979 1684,2139 9,7 22,16 31,23 316,243 288,282 734,617 465,350 668,587 1314,952 714,404 1156,700 1957,998l1730 532c219,63 405,60 627,127 487,147 2178,226 2762,154 1658,-205 3247,-503 4714,-1307 1852,-1016 2770,-1866 4063,-3423l1146 -1877c296,-566 184,-268 467,-980 214,-537 421,-1185 532,-1737 293,-1471 338,-1835 287,-3421 -107,-3361 -2077,-6766 -4705,-8809 -618,-480 -2101,-1390 -2863,-1606 -329,-93 -747,-315 -1103,-391 -1655,-353 -2202,-465 -4083,-408 -525,16 -769,94 -1347,155 -360,37 -1651,392 -2043,602 -162,87 -52,33 -262,96 -647,195 -1477,710 -2025,1013l-886 622c-1247,1032 -1872,1747 -2825,3157 -57,83 -94,137 -150,223 -293,447 -618,1259 -836,1753 -320,727 -211,697 -368,1148 -316,912 -598,3136 -442,4010z"/>
   <path fill="#FDFDFF" d="M7928 12884l-486 283c-569,308 -1901,706 -1306,1594 87,130 142,222 224,371l1254 2139c256,433 616,725 1084,340l1108 -611c1256,-639 574,-542 1708,-542 698,1 2113,153 2681,-147 378,-199 478,-552 609,-942l30 -79c55,-145 550,-54 805,-273 7,-6 20,-16 26,-23 195,-211 88,-1226 115,-1673 617,-353 643,231 643,-1407 0,-494 -166,-602 -655,-602 -744,0 -2233,-32 -2895,20 -76,882 243,2085 -1066,2496 -508,160 -1126,-14 -1418,-303 -373,-370 -458,-655 -456,-1341 1,-595 0,-1189 3,-1784 1,-334 31,-493 -285,-296 -535,336 -1293,706 -1536,1161 -276,518 -106,974 -187,1619z"/>
   <path fill="#FCFCFE" d="M11153 9117c-158,334 -466,215 -523,690 -26,218 -28,2730 30,2906 41,126 102,153 183,262 71,94 -4,-27 78,118 98,202 989,337 1241,-421 123,-368 39,-1493 56,-1994 772,-118 2415,-21 3281,-23 589,-1 962,14 1287,348 384,395 205,799 340,1331 2552,-1394 2150,-1088 1346,-2652 -103,-202 -69,-136 -177,-297l-276 -480c-33,-49 -64,-103 -102,-166l-411 -659c-47,-87 -126,-290 -181,-374 -374,-566 -924,-201 -1341,55 -443,272 -868,470 -1341,767 -497,310 -985,201 -1837,201 -313,0 -691,-45 -969,54 -163,57 -556,325 -684,334z"/>
   <path fill="#9BB0EF" d="M10921 13093c-82,-145 -7,-24 -78,-118 -81,-109 -142,-136 -183,-262 -58,-176 -56,-2688 -30,-2906 57,-475 365,-356 523,-690 -829,322 -657,898 -657,1881 0,413 -4,828 -2,1242 2,406 71,743 427,853z"/>
  </g>
 </g>
</svg>
