<?xml version="1.0" encoding="UTF-8"?>
<!DOCTYPE svg PUBLIC "-//W3C//DTD SVG 1.0//EN" "http://www.w3.org/TR/2001/REC-SVG-20010904/DTD/svg10.dtd">
<!-- Creator: CorelDRAW X8 -->
<svg xmlns="http://www.w3.org/2000/svg" xml:space="preserve" width="254mm" height="254mm" version="1.0" shape-rendering="geometricPrecision" text-rendering="geometricPrecision" image-rendering="optimizeQuality" fill-rule="evenodd" clip-rule="evenodd"
viewBox="0 0 25400 25400"
 xmlns:xlink="http://www.w3.org/1999/xlink">
 <g id="Capa_x0020_1">
  <metadata id="CorelCorpID_0Corel-Layer"/>
  <path fill="#426AE2" stroke="#373435" stroke-width="20" d="M25321 12669c0,-6970 -5640,-12620 -12598,-12620 -6959,0 -12599,5650 -12599,12620 0,6970 5640,12621 12599,12621 6958,0 12598,-5651 12598,-12621z"/>
  <g id="_2703155486064">
   <path fill="#426AE2" stroke="#426AE2" stroke-width="100" d="M16818 16477l-15 -529c10,-27 868,-281 898,-286l0 531c-93,40 -504,167 -652,214 -64,20 -167,62 -231,70zm-9517 -696c64,4 3949,1133 4436,1270 90,26 594,162 637,190l3 594c-78,-10 -527,-165 -645,-202 -104,-33 -214,-70 -316,-103l-1584 -514c-637,-202 -1260,-415 -1893,-614 -107,-33 -207,-66 -316,-102 -101,-34 -228,-67 -321,-107l-1 -412zm5324 1188l0 -795 2551 -794 23 798c-208,50 -432,136 -640,198 -215,63 -434,132 -645,200 -138,44 -1240,394 -1289,393zm-5321 -1447l-3 -803c54,5 2365,681 2532,725 419,109 848,248 1266,363 331,92 994,303 1277,365l1 804 -5073 -1454zm9490 153c-1,-130 -29,-723 -15,-791l920 -286 2 801c-97,36 -865,277 -907,276zm-9493 -3735l5072 1454 4 2521c-135,-23 -2369,-680 -2546,-729 -215,-58 -425,-120 -633,-182l-952 -273c-111,-32 -215,-56 -316,-91 -192,-67 -448,-109 -629,-184l0 -2516zm9774 2596l-21 18c-54,44 24,193 -190,276 -93,35 -228,29 -309,-41 -39,-35 -16,-20 -15,-25l-5 236c-20,137 49,1298 36,1555 -29,22 -1031,349 -1105,360l-70 -2625 1101 -351 12 375c33,-7 32,-19 65,-43 24,-17 44,-30 69,-42 132,-60 72,17 102,-107 11,-68 5,-379 -26,-421 -72,-100 -231,-19 -333,14l-1009 322c-154,48 -234,34 -228,221 10,283 22,586 22,868 -207,52 -430,134 -641,197 -207,61 -422,131 -627,195l-959 297c-97,30 -219,77 -318,96l1 -2521c78,-13 525,-161 641,-197 1047,-324 2122,-667 3166,-982l956 -297c67,-21 250,-86 311,-92l0 2514c-79,36 -595,182 -626,200zm-9773 -3657c65,7 1189,337 1272,362 823,247 1707,482 2535,728l951 273c97,29 216,56 317,92l0 796c-55,6 -1127,-316 -1278,-358 -422,-115 -836,-250 -1265,-364 -419,-111 -850,-247 -1266,-364 -216,-60 -439,-118 -636,-178l-631 -188 1 -799zm0 -1192c67,8 242,76 319,101l4756 1540 -1 746c-101,-17 -228,-63 -326,-90l-4749 -1367 1 -930zm6964 1882c26,85 28,157 -5,239l39 -2c57,-1 1598,-491 1704,-523 282,-84 567,-175 849,-264 112,-35 791,-254 848,-260l-2 799 -635 200c-216,65 -426,143 -629,197 -404,108 -3666,1153 -3809,1175l2 -792c35,-26 1055,-340 1127,-356 -19,-26 -19,-15 -62,-40 -83,-49 -87,-125 -115,-156 -53,-1 -402,117 -481,142 -66,20 -429,141 -472,138l2 -736 5074 -1643 1 811 -3436 1071zm-6676 -2056c41,-24 1156,-379 1225,-401l2458 -796c129,-43 1186,-394 1228,-394 50,0 4121,1333 4617,1492 56,18 254,75 294,99 -25,18 -4882,1594 -4911,1594 -27,0 -4891,-1578 -4911,-1594zm6190 8209c-47,-28 -81,-34 -114,-63 -34,-30 -54,-65 -72,-109l-29 -6c-85,-1 -861,292 -939,290l-1 -597 2582 -804 14 570 -922 296c-23,24 27,4 -27,22 14,80 24,153 -12,229 9,7 -5,6 22,5 49,1 1897,-606 1993,-638 326,-107 654,-218 990,-322 169,-52 328,-109 497,-161 229,-71 185,-67 185,-476l0 -6246c0,-100 20,-235 -41,-291 -39,-35 -1200,-397 -1479,-490l-1487 -483c-162,-52 -344,-102 -499,-157 -470,-167 -1005,-327 -1485,-486 -523,-172 -375,-170 -752,-50 -1406,445 -2812,919 -4223,1368 -79,25 -167,58 -246,82l-497 160c-89,27 -175,40 -182,148 -14,199 -1,452 -1,657l0 5918c0,337 -13,284 282,378l2479 804c668,215 1322,425 1984,643 169,56 328,106 495,161 256,84 190,73 503,-30l982 -322z"/>
   <path fill="white" stroke="#426AE2" stroke-width="100" d="M7301 14456c181,75 437,117 629,184 101,35 205,59 316,91l952 273c208,62 418,124 633,182 177,49 2411,706 2546,729l-4 -2521 -5072 -1454 0 2516z"/>
   <path fill="white" stroke="#426AE2" stroke-width="100" d="M16745 14122c26,38 11,412 25,501 106,-20 203,-70 305,-87 31,-18 547,-164 626,-200l0 -2514c-61,6 -244,71 -311,92l-956 297c-1044,315 -2119,658 -3166,982 -116,36 -563,184 -641,197l-1 2521c99,-19 221,-66 318,-96l959 -297c205,-64 420,-134 627,-195 211,-63 434,-145 641,-197 0,-282 -12,-585 -22,-868 -6,-187 74,-173 228,-221l1009 -322c102,-33 261,-114 333,-14 31,42 37,353 26,421z"/>
   <path fill="#FEFEFE" stroke="#426AE2" stroke-width="100" d="M10730 8941l168 -65c141,-38 369,-126 519,-167 34,-25 627,-212 730,-246 71,-23 317,-115 373,-111l1816 620c91,30 1053,353 1091,382 48,37 63,124 9,180 -33,34 -110,53 -165,74 -816,302 -1693,609 -2516,904 -213,77 -229,110 -377,59 -29,-10 -2834,-990 -2881,-1019 -50,-31 -83,-114 -30,-178 34,-43 105,-57 162,-76 170,-57 1052,-359 1101,-357zm-3140 572c20,16 4884,1594 4911,1594 29,0 4886,-1576 4911,-1594 -40,-24 -238,-81 -294,-99 -496,-159 -4567,-1492 -4617,-1492 -42,0 -1099,351 -1228,394l-2458 796c-69,22 -1184,377 -1225,401z"/>
   <path fill="#FEFEFE" stroke="black" stroke-width="100" d="M11384 8977l-438 142c-116,49 -940,300 -984,335 38,26 1748,621 1875,665l627 220c60,12 538,-178 632,-212 620,-218 1244,-454 1867,-669 -11,-10 -5,-7 -21,-16 -10,-6 -20,-9 -29,-13l-2402 -820c-29,-2 -1054,338 -1127,368z"/>
   <path fill="#FEFEFE" stroke="#426AE2" stroke-width="100" d="M7301 10617l4749 1367c98,27 225,73 326,90l1 -746 -4756 -1540c-77,-25 -252,-93 -319,-101l-1 930z"/>
   <path fill="#FEFEFE" stroke="#426AE2" stroke-width="100" d="M7301 11678l631 188c197,60 420,118 636,178 416,117 847,253 1266,364 429,114 843,249 1265,364 151,42 1223,364 1278,358l0 -796c-101,-36 -220,-63 -317,-92l-951 -273c-828,-246 -1712,-481 -2535,-728 -83,-25 -1207,-355 -1272,-362l-1 799z"/>
   <path fill="#FEFEFE" stroke="#426AE2" stroke-width="100" d="M14300 11806c-24,21 -76,27 -133,48l-412 128c-72,16 -1092,330 -1127,356l-2 792c143,-22 3405,-1067 3809,-1175 203,-54 413,-132 629,-197l635 -200 2 -799c-57,6 -736,225 -848,260 -282,89 -567,180 -849,264 -106,32 -1647,522 -1704,523z"/>
   <path fill="#FEFEFE" stroke="#426AE2" stroke-width="100" d="M12377 16976l-1 -804c-283,-62 -946,-273 -1277,-365 -418,-115 -847,-254 -1266,-363 -167,-44 -2478,-720 -2532,-725l3 803 5073 1454z"/>
   <path fill="#FEFEFE" stroke="#426AE2" stroke-width="100" d="M13578 11786c19,-16 -4,-4 34,-17l654 -200 3436 -1071 -1 -811 -5074 1643 -2 736c43,3 406,-118 472,-138 79,-25 428,-143 481,-142z"/>
   <path fill="#FEFEFE" stroke="#426AE2" stroke-width="100" d="M16535 15000c-25,-39 -18,-583 -26,-686l-12 -375 -1101 351 70 2625c74,-11 1076,-338 1105,-360 13,-257 -56,-1418 -36,-1555z"/>
   <path fill="#426AE2" stroke="#426AE2" stroke-width="100" d="M11417 8709c0,128 22,150 -33,268 73,-30 1098,-370 1127,-368l2402 820c9,4 19,7 29,13 16,9 10,6 21,16 -623,215 -1247,451 -1867,669 -94,34 -572,224 -632,212l-627 -220c-127,-44 -1837,-639 -1875,-665 44,-35 868,-286 984,-335 -21,-25 -32,-17 -67,-31 -118,-49 -116,-118 -149,-147 -49,-2 -931,300 -1101,357 -57,19 -128,33 -162,76 -53,64 -20,147 30,178 47,29 2852,1009 2881,1019 148,51 164,18 377,-59 823,-295 1700,-602 2516,-904 55,-21 132,-40 165,-74 54,-56 39,-143 -9,-180 -38,-29 -1000,-352 -1091,-382l-1816 -620c-56,-4 -302,88 -373,111 -103,34 -696,221 -730,246z"/>
   <path fill="#FEFEFE" stroke="#426AE2" stroke-width="100" d="M7302 16193c93,40 220,73 321,107 109,36 209,69 316,102 633,199 1256,412 1893,614l1584 514c102,33 212,70 316,103 118,37 567,192 645,202l-3 -594c-43,-28 -547,-164 -637,-190 -487,-137 -4372,-1266 -4436,-1270l1 412z"/>
   <path fill="#FEFEFE" stroke="#426AE2" stroke-width="100" d="M12625 16969c49,1 1151,-349 1289,-393 211,-68 430,-137 645,-200 208,-62 432,-148 640,-198l-23 -798 -2551 794 0 795z"/>
   <path fill="#FEFEFE" stroke="#426AE2" stroke-width="100" d="M13565 17544c13,-12 2,-4 22,-13l712 -232 922 -296 -14 -570 -2582 804 1 597c78,2 854,-291 939,-290z"/>
   <path fill="#FEFEFE" stroke="#426AE2" stroke-width="100" d="M16794 15675c42,1 810,-240 907,-276l-2 -801 -920 286c-14,68 14,661 15,791z"/>
   <path fill="#FEFEFE" stroke="#426AE2" stroke-width="100" d="M16818 16477c64,-8 167,-50 231,-70 148,-47 559,-174 652,-214l0 -531c-30,5 -888,259 -898,286l15 529z"/>
   <path fill="#426AE2" stroke="#426AE2" stroke-width="100" d="M16509 14314c8,103 1,647 26,686l5 -236c-1,5 -24,-10 15,25 81,70 216,76 309,41 214,-83 136,-232 190,-276l21 -18c-102,17 -199,67 -305,87 -14,-89 1,-463 -25,-501 -30,124 30,47 -102,107 -25,12 -45,25 -69,42 -33,24 -32,36 -65,43z"/>
   <path fill="#426AE2" stroke="#426AE2" stroke-width="100" d="M13578 11786c28,31 32,107 115,156 43,25 43,14 62,40l412 -128c57,-21 109,-27 133,-48l-39 2c33,-82 31,-154 5,-239l-654 200c-38,13 -15,1 -34,17z"/>
   <path fill="#426AE2" stroke="#426AE2" stroke-width="100" d="M13565 17544l29 6c18,44 38,79 72,109 33,29 67,35 114,63l476 -150c34,-14 13,-4 26,-17 -27,1 -13,2 -22,-5 36,-76 26,-149 12,-229 54,-18 4,2 27,-22l-712 232c-20,9 -9,1 -22,13z"/>
   <path fill="#426AE2" stroke="#426AE2" stroke-width="100" d="M10730 8941c33,29 31,98 149,147 35,14 46,6 67,31l438 -142c55,-118 33,-140 33,-268 -150,41 -378,129 -519,167l-168 65z"/>
  </g>
 </g>
</svg>
