<?xml version="1.0" encoding="UTF-8"?>
<!DOCTYPE svg PUBLIC "-//W3C//DTD SVG 1.0//EN" "http://www.w3.org/TR/2001/REC-SVG-20010904/DTD/svg10.dtd">
<!-- Creator: CorelDRAW X8 -->
<svg xmlns="http://www.w3.org/2000/svg" xml:space="preserve" width="254mm" height="254mm" version="1.0" shape-rendering="geometricPrecision" text-rendering="geometricPrecision" image-rendering="optimizeQuality" fill-rule="evenodd" clip-rule="evenodd"
viewBox="0 0 25400 25400"
 xmlns:xlink="http://www.w3.org/1999/xlink">
 <g id="Capa_x0020_1">
  <metadata id="CorelCorpID_0Corel-Layer"/>
  <path fill="#426AE2" stroke="#373435" stroke-width="20" d="M25321 12669c0,-6970 -5640,-12620 -12598,-12620 -6959,0 -12599,5650 -12599,12620 0,6970 5640,12621 12599,12621 6958,0 12598,-5651 12598,-12621z"/>
  <polygon fill="#FEFEFE" stroke="#426AE2" stroke-width="211.67" points="15735,20104 18079,5171 8427,3656 6083,18589 "/>
  <rect fill="none" stroke="#373435" stroke-width="150" transform="matrix(0.214265 0.0521371 -0.0521371 0.214265 9702.47 4092.37)" width="44873" height="69427"/>
  <polygon fill="#FEFEFE" stroke="#282829" stroke-width="211.67" points="19317,6432 9702,4092 6083,18968 15698,21308 "/>
  <polygon fill="white" stroke="#426AE2" stroke-width="211.67" points="19317,6432 9702,4092 6083,18968 15698,21308 "/>
  <path fill="#426AE2" d="M11799 17012l920 222c-153,336 -759,783 -1143,677l223 -899zm-1130 -248c215,-51 700,98 951,207l-230 906c-181,-38 -74,-12 -123,-82 -359,-120 -517,-688 -598,-1031zm1572 1200c229,-95 547,-490 711,-678l629 170c-195,265 -1016,536 -1340,508zm-1469 -356c-332,-151 -886,-729 -951,-1080l626 158c131,297 110,571 325,922zm1149 -2046c74,153 -157,1029 -273,1216 -276,-34 -830,-107 -1006,-286 -73,-288 -7,-926 91,-1210l1188 280zm948 1477c-223,76 -774,-107 -1026,-214 -14,-284 152,-768 224,-1066 61,-199 32,-90 96,-135l1183 300c-43,327 -256,865 -477,1115zm-3172 -754c-109,-418 -186,-821 -64,-1273l865 224 -72 1235 -729 -186zm3857 -316l899 233c-113,401 -353,820 -663,1089l-692 -171 456 -1151zm-1080 -1735l1016 253c61,368 30,868 -94,1240l-1210 -323 288 -1170zm-1696 844c66,-368 264,-832 490,-1145l1014 272 -290 1175 -1214 -302zm2922 -547l715 187c152,367 190,870 79,1276l-863 -232 69 -1231zm-4020 284c121,-543 358,-715 644,-1112l708 197 -460 1136 -892 -221zm3177 -1624c391,184 506,674 602,1072l-908 -214c-32,-77 -66,69 -20,-160l211 -786 115 88zm-1453 574c213,-360 727,-745 1150,-681l-223 906 -927 -225zm2268 547c-45,-150 -61,-308 -109,-463 -53,-170 -137,-287 -178,-436 336,167 833,704 927,1059l-640 -160zm-1832 -1265c-4,6 -642,630 -676,663l-616 -165c243,-250 898,-525 1292,-498zm0 0l23 -51 36 59 -59 -8zm507 -202c-3569,-329 -4055,4972 -524,5325 3475,347 4016,-5003 524,-5325z"/>
  <rect fill="none" stroke="#426AE2" stroke-width="300" transform="matrix(0.722391 0.175778 -0.236429 0.971649 10216.1 7328.75)" width="10265.8" height="52.92"/>
  <rect fill="#426AE2" stroke="#426AE2" stroke-width="300" transform="matrix(0.517113 0.125828 -0.169245 0.695541 10669 9361.41)" width="10265.8" height="52.92"/>
 </g>
</svg>
