<?xml version="1.0" encoding="UTF-8"?>
<!DOCTYPE svg PUBLIC "-//W3C//DTD SVG 1.0//EN" "http://www.w3.org/TR/2001/REC-SVG-20010904/DTD/svg10.dtd">
<!-- Creator: CorelDRAW X8 -->
<svg xmlns="http://www.w3.org/2000/svg" xml:space="preserve" width="254mm" height="254mm" version="1.0" shape-rendering="geometricPrecision" text-rendering="geometricPrecision" image-rendering="optimizeQuality" fill-rule="evenodd" clip-rule="evenodd"
viewBox="0 0 25400 25400"
 xmlns:xlink="http://www.w3.org/1999/xlink">
 <g id="Capa_x0020_1">
  <metadata id="CorelCorpID_0Corel-Layer"/>
  <path fill="#426AE2" stroke="#373435" stroke-width="20" d="M25321 12669c0,-6970 -5640,-12620 -12598,-12620 -6959,0 -12599,5650 -12599,12620 0,6970 5640,12621 12599,12621 6958,0 12598,-5651 12598,-12621z"/>
  <g id="_2233971819712">
   <path fill="#4269E2" d="M14143 12899l3227 16c30,423 -119,1243 80,1542 298,199 1120,52 1558,79l-20 4868 -6479 -17 14 -4858 1600 -19 20 -1611zm-2444 -4087c-4,-1824 1873,-3131 3610,-2190 625,339 1203,1031 1263,1916 105,1522 -781,1880 -916,2229 197,198 1103,627 1195,1241 -1323,41 -839,-79 -1536,-466 -786,-437 -1945,-365 -2676,222 -1155,926 -830,1959 -1068,2707 -207,651 -460,710 -755,1149 180,414 887,403 888,1078l-14 1277c-129,-69 -86,-18 -225,-347 -957,-2274 -4462,-1919 -4641,929l-828 13c-123,-1913 1548,-2624 1684,-2950 -180,-303 -384,-367 -612,-820 -690,-1365 28,-3531 2151,-3531 1445,0 1533,704 2020,892 904,-1259 1089,-1080 1307,-1394 -81,-279 44,-27 -169,-268 -424,-479 -676,-991 -678,-1687zm-11156 4853c22,224 85,361 104,673 86,1376 811,3398 1479,4548 2139,3685 6343,6234 11134,5999 4463,-219 8836,-3441 10378,-7565 1242,-3322 1180,-6608 -434,-9842 -330,-660 -756,-1354 -1167,-1858 -832,-1020 -626,-749 -1418,-1548 -1045,-1055 -2275,-1746 -3654,-2340 -1475,-635 -3268,-887 -5187,-822 -3163,107 -6153,1703 -8126,3878 -443,489 -976,1184 -1308,1719 -1237,1998 -2044,4675 -1801,7158z"/>
   <path fill="#F9FAFE" d="M10827 14070c-509,2001 -3519,1496 -3164,-736 128,-807 966,-1455 2017,-1213 707,163 1384,1018 1147,1949zm2868 -6852c884,-398 1781,364 1998,1038 296,922 -233,1813 -1057,2072 -1434,453 -2681,-1066 -1875,-2422 292,-492 451,-471 934,-688zm-1996 1594c2,696 254,1208 678,1687 213,241 88,-11 169,268 -218,314 -403,135 -1307,1394 -487,-188 -575,-892 -2020,-892 -2123,0 -2841,2166 -2151,3531 228,453 432,517 612,820 -136,326 -1807,1037 -1684,2950l828 -13c179,-2848 3684,-3203 4641,-929 139,329 96,278 225,347l14 -1277c-1,-675 -708,-664 -888,-1078 295,-439 548,-498 755,-1149 238,-748 -87,-1781 1068,-2707 731,-587 1890,-659 2676,-222 697,387 213,507 1536,466 -92,-614 -998,-1043 -1195,-1241 135,-349 1021,-707 916,-2229 -60,-885 -638,-1577 -1263,-1916 -1737,-941 -3614,366 -3610,2190z"/>
   <path fill="#FBFCFE" d="M13329 16986l786 -14 28 788 789 14 28 -782 1593 -24 30 779 814 19 12 -760 790 -19 -4 1595 -4853 10 -13 -1606zm12 -1645l4887 36 -21 772 -4873 -14 7 -794zm1618 -1603c353,-64 1311,-88 1642,23l-20 759 -1621 -11 -1 -771zm-836 772l-1600 19 -14 4858 6479 17 20 -4868c-438,-27 -1260,120 -1558,-79 -199,-299 -50,-1119 -80,-1542l-3227 -16 -20 1611z"/>
   <path fill="#446BE2" d="M13695 7218c-483,217 -642,196 -934,688 -806,1356 441,2875 1875,2422 824,-259 1353,-1150 1057,-2072 -217,-674 -1114,-1436 -1998,-1038z"/>
   <path fill="#446BE2" d="M10827 14070c237,-931 -440,-1786 -1147,-1949 -1051,-242 -1889,406 -2017,1213 -355,2232 2655,2737 3164,736z"/>
   <polygon fill="#446BE2" points="13342,18592 18195,18582 18199,16987 17409,17006 17397,17766 16583,17747 16553,16968 14960,16992 14932,17774 14143,17760 14115,16972 13329,16986 "/>
   <polygon fill="#476DE3" points="13334,16135 18207,16149 18228,15377 13341,15341 "/>
   <path fill="#4C71E2" d="M14960 14509l1621 11 20 -759c-331,-111 -1289,-87 -1642,-23l1 771z"/>
  </g>
 </g>
</svg>
