<?xml version="1.0" encoding="UTF-8"?>
<!DOCTYPE svg PUBLIC "-//W3C//DTD SVG 1.0//EN" "http://www.w3.org/TR/2001/REC-SVG-20010904/DTD/svg10.dtd">
<!-- Creator: CorelDRAW X8 -->
<svg xmlns="http://www.w3.org/2000/svg" xml:space="preserve" width="254mm" height="254mm" version="1.0" shape-rendering="geometricPrecision" text-rendering="geometricPrecision" image-rendering="optimizeQuality" fill-rule="evenodd" clip-rule="evenodd"
viewBox="0 0 25400 25400"
 xmlns:xlink="http://www.w3.org/1999/xlink">
 <g id="Capa_x0020_1">
  <metadata id="CorelCorpID_0Corel-Layer"/>
  <path fill="#426AE2" stroke="#373435" stroke-width="20" d="M25321 12669c0,-6970 -5640,-12620 -12598,-12620 -6959,0 -12599,5650 -12599,12620 0,6970 5640,12621 12599,12621 6958,0 12598,-5651 12598,-12621z"/>
  <g id="_2702849045136">
   <path fill="#426AE2" d="M8852 9301c1022,-980 3035,-268 4140,536l-2006 936 -2134 -1472zm3196 -8245l2606 0c11654,1311 14233,20372 404,23091 -280,55 -556,98 -829,135l-3467 0c-5801,-845 -9448,-5957 -9762,-11192l0 -1446c272,-4580 3187,-8961 9545,-10346 513,-111 1014,-190 1503,-242zm559 16897l486 -4876c-1364,377 -2810,1157 -4293,1188 -1093,22 -2766,-1615 -2877,-2489 1693,-197 2105,952 3604,393 3487,-1302 8042,-4983 10232,-3317 -357,2443 -3161,929 -4182,3952 -540,1597 -976,5035 -2970,5149z"/>
   <path fill="#FEFEFF" d="M12607 17953c1994,-114 2430,-3552 2970,-5149 1021,-3023 3825,-1509 4182,-3952 -2190,-1666 -6745,2015 -10232,3317 -1499,559 -1911,-590 -3604,-393 111,874 1784,2511 2877,2489 1483,-31 2929,-811 4293,-1188l-486 4876z"/>
   <path fill="#FEFEFF" d="M8852 9301l2134 1472 2006 -936c-1105,-804 -3118,-1516 -4140,-536z"/>
  </g>
 </g>
</svg>
