<?xml version="1.0" encoding="UTF-8"?>
<!DOCTYPE svg PUBLIC "-//W3C//DTD SVG 1.0//EN" "http://www.w3.org/TR/2001/REC-SVG-20010904/DTD/svg10.dtd">
<!-- Creator: CorelDRAW X8 -->
<svg xmlns="http://www.w3.org/2000/svg" xml:space="preserve" width="254mm" height="254mm" version="1.0" shape-rendering="geometricPrecision" text-rendering="geometricPrecision" image-rendering="optimizeQuality" fill-rule="evenodd" clip-rule="evenodd"
viewBox="0 0 25400 25400"
 xmlns:xlink="http://www.w3.org/1999/xlink">
 <g id="Capa_x0020_1">
  <metadata id="CorelCorpID_0Corel-Layer"/>
  <path fill="#426AE2" stroke="#373435" stroke-width="20" d="M25321 12669c0,-6970 -5640,-12620 -12598,-12620 -6959,0 -12599,5650 -12599,12620 0,6970 5640,12621 12599,12621 6958,0 12598,-5651 12598,-12621z"/>
  <g id="_2233971819104">
   <path fill="#4269E1" d="M11150 18565c-1305,59 -1147,-9 -832,-1299 157,-647 242,-1352 381,-1999 290,-1344 519,-2688 785,-4026 90,-456 251,-1533 648,-1765 605,-355 1268,-67 1613,495 271,443 605,1039 995,1380 1372,1200 894,-66 1048,-450l802 32 -7 7673 -830 -12 -6 -5492c-267,-143 -949,-279 -1199,-482 -225,-182 -812,-683 -984,-714l-276 1545c92,16 705,660 845,796 423,411 282,650 282,1239 0,581 76,2661 -22,3099l-1072 -24c-81,-705 -18,-1959 -10,-2717 7,-715 -18,-493 -430,-928 -121,-128 -555,-539 -709,-637l-1022 4286zm-1407 -9109c335,-145 1201,-170 1198,278 -3,381 -179,872 -257,1239 -92,435 -133,858 -215,1272 -86,430 -34,1021 -520,937 -1193,-206 -1485,-354 -1097,-1652 216,-722 111,-1737 891,-2074zm3596 -2544c1321,-386 1851,1883 495,2109 -1377,230 -1980,-1674 -495,-2109zm11101 6644c406,-6497 -4705,-12429 -11268,-12606 -3575,-97 -6179,750 -8836,3150 -2221,2005 -3672,5180 -3789,8161 -256,6591 4652,12301 11340,12585 6673,283 12137,-4637 12553,-11290z"/>
   <path fill="white" d="M11150 18565l1022 -4286c154,98 588,509 709,637 412,435 437,213 430,928 -8,758 -71,2012 10,2717l1072 24c98,-438 22,-2518 22,-3099 0,-589 141,-828 -282,-1239 -140,-136 -753,-780 -845,-796l276 -1545c172,31 759,532 984,714 250,203 932,339 1199,482l6 5492 830 12 7 -7673 -802 -32c-154,384 324,1650 -1048,450 -390,-341 -724,-937 -995,-1380 -345,-562 -1008,-850 -1613,-495 -397,232 -558,1309 -648,1765 -266,1338 -495,2682 -785,4026 -139,647 -224,1352 -381,1999 -315,1290 -473,1358 832,1299z"/>
   <path fill="white" d="M9743 9456c-780,337 -675,1352 -891,2074 -388,1298 -96,1446 1097,1652 486,84 434,-507 520,-937 82,-414 123,-837 215,-1272 78,-367 254,-858 257,-1239 3,-448 -863,-423 -1198,-278z"/>
   <path fill="white" d="M13339 6912c-1485,435 -882,2339 495,2109 1356,-226 826,-2495 -495,-2109z"/>
  </g>
 </g>
</svg>
